<svg width="22" height="22" viewBox="0 0 22 22" fill="none" xmlns="http://www.w3.org/2000/svg">
<path d="M0.5 19.9997H21.5V21.4997H0.5V19.9997ZM19.25 7.24968C19.4489 7.24968 19.6397 7.17066 19.7803 7.03001C19.921 6.88936 20 6.69859 20 6.49968V4.24968C19.9999 4.09555 19.9524 3.94517 19.8638 3.81903C19.7752 3.69288 19.65 3.59709 19.505 3.54468L11.255 0.544681C11.0902 0.485106 10.9098 0.485106 10.745 0.544681L2.495 3.54468C2.35005 3.59709 2.22476 3.69288 2.13619 3.81903C2.04762 3.94517 2.00007 4.09555 2 4.24968V6.49968C2 6.69859 2.07902 6.88936 2.21967 7.03001C2.36032 7.17066 2.55109 7.24968 2.75 7.24968H3.5V16.9997H2V18.4997H20V16.9997H18.5V7.24968H19.25ZM3.5 4.77468L11 2.04468L18.5 4.77468V5.74968H3.5V4.77468ZM12.5 16.9997H9.5V7.24968H12.5V16.9997ZM5 7.24968H8V16.9997H5V7.24968ZM17 16.9997H14V7.24968H17V16.9997Z" fill="#1A48E9"/>
</svg>
