<svg width="8" height="8" viewBox="0 0 8 8" fill="none" xmlns="http://www.w3.org/2000/svg">
<path d="M7.5 3.5H1.57L3.385 1.32C3.46987 1.21789 3.5107 1.08625 3.49851 0.954039C3.48632 0.821826 3.42211 0.69987 3.32 0.615001C3.21789 0.530131 3.08625 0.4893 2.95404 0.50149C2.82183 0.51368 2.69987 0.577892 2.615 0.680001L0.115 3.68C0.0981804 3.70386 0.0831396 3.72893 0.0699999 3.755C0.0699999 3.78 0.0700001 3.795 0.0350001 3.82C0.0123368 3.87733 0.000470561 3.93836 0 4C0.000470561 4.06165 0.0123368 4.12267 0.0350001 4.18C0.0350001 4.205 0.0349999 4.22 0.0699999 4.245C0.0831396 4.27107 0.0981804 4.29614 0.115 4.32L2.615 7.32C2.66201 7.37644 2.72088 7.42183 2.78742 7.45294C2.85397 7.48405 2.92654 7.50012 3 7.5C3.11683 7.50023 3.23004 7.45954 3.32 7.385C3.37063 7.34303 3.41248 7.29148 3.44316 7.2333C3.47383 7.17513 3.49273 7.11147 3.49877 7.04599C3.50481 6.9805 3.49787 6.91446 3.47834 6.85166C3.45882 6.78886 3.4271 6.73053 3.385 6.68L1.57 4.5H7.5C7.63261 4.5 7.75979 4.44732 7.85355 4.35355C7.94732 4.25979 8 4.13261 8 4C8 3.86739 7.94732 3.74022 7.85355 3.64645C7.75979 3.55268 7.63261 3.5 7.5 3.5Z" fill="#434547"/>
</svg>
