<svg width="13" height="12" viewBox="0 0 13 12" fill="none" xmlns="http://www.w3.org/2000/svg">
<path fill-rule="evenodd" clip-rule="evenodd" d="M5.6921 2.43526L5.6921 11.3333C5.6921 11.7015 6.05285 12 6.49786 12C6.94287 12 7.30362 11.7015 7.30362 11.3333L7.30362 2.44665L11.5322 6.43936C11.8254 6.71628 12.3345 6.74406 12.6692 6.50141C13.0039 6.25876 13.0375 5.83756 12.7442 5.56064L7.16468 0.292301C7.01971 0.11588 6.77514 0 6.49786 0C6.49651 0 6.49517 2.86102e-06 6.49382 8.58307e-06C6.26936 -0.00090313 6.04453 0.0751123 5.88305 0.228018L0.250759 5.56135C-0.0420457 5.83861 -0.0077495 6.25977 0.327361 6.50203C0.662472 6.74429 1.1715 6.71591 1.4643 6.43865L5.6921 2.43526Z" fill="#3DD598"/>
</svg>
